<?xml version="1.0" encoding="utf-8"?>
<!-- Generator: Adobe Illustrator 18.1.1, SVG Export Plug-In . SVG Version: 6.00 Build 0)  -->
<svg version="1.1" id="Layer_1" xmlns="http://www.w3.org/2000/svg" xmlns:xlink="http://www.w3.org/1999/xlink" x="0px" y="0px"
	 viewBox="0 0 250 150" enable-background="new 0 0 250 150" xml:space="preserve">
<polygon fill="#FFFFFF" points="39.6,39.8 22.6,52.6 6.5,62.6 5.3,67.4 9.5,70.3 29.2,66.3 37.5,73 54.6,78.2 69,94.7 65,77.6 
	67.5,58.8 75.6,50.2 88.3,46.8 77.7,52.2 72,60.7 70.5,77.8 83.7,101.8 65.1,118.5 52,142.1 54.2,144.2 67,126.7 102.6,106.9 
	108.8,106.1 105.2,95.5 109.4,75.3 123.6,65.9 183.7,60.7 227.6,41.9 244,14.9 242.9,5.9 239.9,13.5 221.8,35.2 181.9,44.1 
	118.3,27 93,26.9 68.1,35.7 49.9,54.9 37.7,55.6 35.1,53.6 39.8,50.4 41.6,40.6 "/>
</svg>
