<?xml version="1.0" encoding="utf-8"?>
<!-- Generator: Adobe Illustrator 18.1.1, SVG Export Plug-In . SVG Version: 6.00 Build 0)  -->
<svg version="1.1" id="Layer_1" xmlns="http://www.w3.org/2000/svg" xmlns:xlink="http://www.w3.org/1999/xlink" x="0px" y="0px"
	 viewBox="0 0 250 250" enable-background="new 0 0 250 250" xml:space="preserve">
<rect display="none" fill="#6F26A3" width="250" height="250"/>
<path fill="#6F26A3" d="M227.3,208.3h-49.6c-5.4,0-9.9-4.5-9.9-9.8v-33.3c0-24-9.4-46.6-26.3-63.6C126,86.2,106,77.1,84.4,75.5
	c0.7-3.1,1-6.3,1-9.6l0-18.1l11.6-11.6c3.5-3.5,5.4-8.2,5.4-13.1c0-5-1.9-9.6-5.4-13.1C93.6,6.5,88.9,4.6,84,4.6
	c-5,0-9.6,1.9-13,5.3L52.6,28.3L34.2,10c-3.5-3.5-8.1-5.4-13.1-5.4c-5,0-9.7,1.9-13.2,5.4C0.8,17.3,0.7,29,7.9,36.1L19.7,48v46.3
	c0,8.8,6.2,16.1,14.5,18v7.7c-8.5,1.8-14.9,9.2-14.9,18.1v30.8c0,10.1,8.2,18.4,18.3,18.5c3.4,8.5,9.2,15.7,16.6,20.9l-16,0
	c-10.2,0-18.4,8.3-18.4,18.5c0,10.3,8.3,18.6,18.5,18.6h82.4c10.2,0,18.5-8.3,18.5-18.5v0c8.2,11.2,21.4,18.5,36.3,18.5l51.8,0
	c10.2,0,18.5-8.3,18.5-18.6C245.7,216.6,237.5,208.3,227.3,208.3z M13.9,30.1c-3.8-3.8-3.7-10.2,0.1-14.1c1.9-1.9,4.4-2.9,7.1-2.9
	c2.7,0,5.2,1,7,2.9l24.3,24.3L77,15.9c1.8-1.8,4.3-2.8,7-2.8c2.7,0,5.2,1,7.1,2.9c1.9,1.9,2.9,4.4,2.9,7.1c0,2.7-1,5.2-2.9,7.1
	L77,44.3l-0.1,21.6c0,21.2-17.2,38.4-38.4,38.4h-0.1c-5.5,0-10.2-4.6-10.2-10V44.5L13.9,30.1z M227.2,236.9l-51.8,0
	c-19.9,0-36.1-16-36.3-35.8v-0.5c0-2.4-1.9-4.3-4.3-4.3c-2.4,0-4.3,1.9-4.3,4.3v0h0c0,0.3,0,0.6,0,1V227c0,5.5-4.5,9.9-10,9.9H38.2
	c-5.5,0-10-4.5-10-10.1c0-5.4,4.5-10,9.9-10l47.2,0v-4c0-0.1,0-0.2,0-0.2c0-0.1,0-0.2,0-0.2l0-21.1c0-15.6,9.2-29.4,23.4-35.1
	c2.2-0.9,3.2-3.4,2.4-5.5c-0.9-2.2-3.4-3.2-5.5-2.4c-17.4,7.1-28.7,23.9-28.7,43l0,16.9c-13.8-1.5-25.4-10.4-30.8-22.6
	c6.1-3,10.3-9.3,10.3-16.5v-12.3h26.4c2.4,0,4.3-1.9,4.3-4.3s-1.9-4.3-4.3-4.3h-4.5H47.9V169c0,5.4-4.6,9.9-10,9.9
	c-5.5,0-10.1-4.5-10.1-10v-30.8c0-5.4,4.7-10,10.2-10h14.5c1.2,0,2.3-0.5,3.1-1.3c0.7-0.8,1.2-1.8,1.2-2.9c0-2.4-1.9-4.3-4.3-4.3
	h-9.8v-7c17.7-1.6,32.5-13,39.1-28.7c20.2,1,39.1,9.3,53.5,23.8c15.4,15.4,23.8,35.8,23.8,57.6v33.3c0,9.9,8.5,18.3,18.5,18.3h49.6
	c5.4,0,9.9,4.6,9.9,10C237.2,232.4,232.7,236.9,227.2,236.9z"/>
</svg>
